<svg xmlns="http://www.w3.org/2000/svg" viewBox="0 0 579.98 419.13"><defs><style>.cls-1{fill:#e2e2e2;}</style></defs><title>image-not-found</title><g id="Capa_2" data-name="Capa 2"><g id="Capa_1-2" data-name="Capa 1"><g id="Capa_2-2" data-name="Capa 2"><path class="cls-1" d="M0,360.21V58.91a39.34,39.34,0,0,1,.09-4.68C2.15,27.44,31.54,1.08,60.32,0c2.85-.1,4.94.1,5.31.1H514.36c1.37,0,2.75-.07,4.12-.11l2.35,0c30.51,2.68,55.17,25.5,58.64,54.27l.4,2.55c0,.68.07,1.37.11,2v301.3c-.18,1.54-.36,3.07-.55,4.6-2.66,27.89-27.82,51.43-58,54.27l-3.5.05c-.69-.05-1.37-.14-2-.14H66.55c-1.08,0-2.16.08-3.24.12l-4.73-.07c-5.35-1.16-11-1.68-16-3.59-24-9.08-38.1-26-42-50.65ZM290,396q108.89,0,217.76,0a110,110,0,0,0,14.73-1c16.54-2.21,27.38-11.21,31.15-26.3a69.66,69.66,0,0,0,2-16.64q.18-142.5,0-285a72.56,72.56,0,0,0-1.27-13.31c-2.68-14.32-10.79-24.47-25.75-28.09a92,92,0,0,0-21.34-2.39Q290.06,23,72.73,23.14a119.94,119.94,0,0,0-15,1C41.12,26.28,30.08,35.37,26.4,50.61a81.8,81.8,0,0,0-2,18.92q-.2,140.08,0,280.17A88.3,88.3,0,0,0,25.57,365c2.68,15.19,11.4,25.47,27.37,28.9a90.62,90.62,0,0,0,18.43,2Q180.69,396.14,290,396Z"/><path class="cls-1" d="M.55,54.84,0,58.91A16,16,0,0,1,.55,54.84Z"/><path class="cls-1" d="M60.43,360.9v-2.42q0-49.92,0-99.84a4.25,4.25,0,0,1,1.81-3.84q58.8-45.26,117.53-90.61c.45-.35.93-.69,1.63-1.2l60.32,46.57,157-128.15q8.63,7.45,17.15,14.84Q466.44,140.14,517,184a6.61,6.61,0,0,1,2.63,5.55q-.12,84-.06,168v3.33Z"/><path class="cls-1" d="M109.16,59.7A50,50,0,1,0,159,109.75,50,50,0,0,0,109.16,59.7Zm24.27,66.19a5.83,5.83,0,0,1-8.24,8.24L109,117.91,92.76,134.13a5.85,5.85,0,0,1-8.24,0h0a5.85,5.85,0,0,1,0-8.24l16.22-16.22L84.52,93.46a5.85,5.85,0,0,1,0-8.24h0a5.85,5.85,0,0,1,8.24,0L109,101.44l16.21-16.22a5.83,5.83,0,0,1,8.24,8.24l-16.22,16.21Z"/></g></g></g></svg>