<svg id="Capa_1" data-name="Capa 1" xmlns="http://www.w3.org/2000/svg" viewBox="0 0 691.42 691.65"><defs><style>.cls-1{fill:#cecece;}</style></defs><title>user-circle</title><path class="cls-1" d="M377,389.36V379l.32-9.36a343.95,343.95,0,0,1,38.48-145,345.29,345.29,0,0,1,95.32-114.15A344.18,344.18,0,0,1,706.38,38.57a346.46,346.46,0,0,1,70.27,3.8,335.62,335.62,0,0,1,65.61,17.08Q931.06,92.54,991,166a341.37,341.37,0,0,1,58.24,104.22,322.19,322.19,0,0,1,15.57,64.23c1.55,11.69,2.21,23.49,3.26,35.24.12,3.12.23,6.23.34,9.35v10.37c-.11,3-.21,6-.32,9a343.46,343.46,0,0,1-5.5,49,334.86,334.86,0,0,1-29.52,89q-49.75,99.84-148,152.88c-45.83,24.67-95,37.78-146.92,40.17a344.72,344.72,0,0,1-84.68-6.59,339.07,339.07,0,0,1-73.43-23.78A347.39,347.39,0,0,1,414.07,540a343.59,343.59,0,0,1-36.75-141.6ZM518.53,556.58c.38.48.77,1,1.18,1.44a263.48,263.48,0,0,0,36.1,34.9q66.93,53.15,152.24,58.39a259.51,259.51,0,0,0,63.8-4.13,264,264,0,0,0,80.18-29A269.72,269.72,0,0,0,926,557.74c.59-.69.95-1.19.39-2.21C911.8,529,891.53,508,865.19,493.08a151.3,151.3,0,0,0-67.42-19.62c-6.62-.36-13.16-.34-19.64,1.78a179.48,179.48,0,0,1-52.85,9.14c-18.57.31-36.67-2.73-54.43-8-4.4-1.3-8.72-3-13.4-3a150,150,0,0,0-55.43,9.6,153.72,153.72,0,0,0-51.94,32.32A157.83,157.83,0,0,0,518.53,556.58ZM600,294.77c0,67.66,54.9,122.63,122.48,122.65A122.68,122.68,0,1,0,600,294.77Z" transform="translate(-377 -38.18)"/><path class="cls-1" d="M377,369.65l.32,0L377,379Z" transform="translate(-377 -38.18)"/><path class="cls-1" d="M1068.08,369.64h.34V379C1068.31,375.87,1068.2,372.76,1068.08,369.64Z" transform="translate(-377 -38.18)"/><path class="cls-1" d="M377.32,398.37l-.32,0v-9Z" transform="translate(-377 -38.18)"/><path class="cls-1" d="M1068.42,398.35l-.32,0c.11-3,.21-6,.32-9Z" transform="translate(-377 -38.18)"/></svg>