<svg id="Capa_1" data-name="Capa 1" xmlns="http://www.w3.org/2000/svg" viewBox="0 0 106 145.972"><defs><style>.cls-1{fill:#cf0a2c;}.cls-2{fill:#e07994;}.cls-3{fill:#ecf0f1;}</style></defs><title>pdf</title><path id="Hoja" class="cls-1" d="M268.832,167.857H195.106A7.127,7.127,0,0,0,188,174.963V306.427a7.127,7.127,0,0,0,7.106,7.106h91.788A7.127,7.127,0,0,0,294,306.427V195.492Z" transform="translate(-188 -167.561)"/><path id="Dobles" class="cls-2" d="M294,195.1H268.832V167.561Z" transform="translate(-188 -167.561)"/><path class="cls-3" d="M206.156,255v-5.889h4.928V255Z" transform="translate(-188 -167.561)"/><path class="cls-3" d="M214.636,255V232.28h9.792a6.906,6.906,0,0,1,3.072.688,7.983,7.983,0,0,1,2.416,1.792,8.374,8.374,0,0,1,1.584,2.528,7.576,7.576,0,0,1,.576,2.864,8.328,8.328,0,0,1-2.064,5.455,7.229,7.229,0,0,1-2.368,1.761,7.075,7.075,0,0,1-3.056.655h-3.712V255Zm6.24-12.416h3.3a1.462,1.462,0,0,0,1.072-.527,2.8,2.8,0,0,0,.5-1.9,2.517,2.517,0,0,0-.576-1.92,1.748,1.748,0,0,0-1.152-.512h-3.136Z" transform="translate(-188 -167.561)"/><path class="cls-3" d="M234.572,255V232.28h8.736a12.8,12.8,0,0,1,4.96.9,9.983,9.983,0,0,1,5.76,6.032,13.013,13.013,0,0,1,.735,4.4,12.832,12.832,0,0,1-.815,4.688,10.137,10.137,0,0,1-2.32,3.584,10.38,10.38,0,0,1-3.616,2.3,12.932,12.932,0,0,1-4.7.816Zm13.855-11.393a7.773,7.773,0,0,0-.352-2.4,5.381,5.381,0,0,0-1.008-1.856,4.557,4.557,0,0,0-1.616-1.2,5.166,5.166,0,0,0-2.144-.432h-2.5v11.84h2.5a5.075,5.075,0,0,0,2.176-.449,4.533,4.533,0,0,0,1.616-1.248,5.5,5.5,0,0,0,.991-1.887A7.979,7.979,0,0,0,248.427,243.607Z" transform="translate(-188 -167.561)"/><path class="cls-3" d="M257.483,255V232.28h15.584v5.44h-9.344V241.5h7.615v5.056h-7.615V255Z" transform="translate(-188 -167.561)"/></svg>